HIERARCHY
ROOT Hips
{
 OFFSET 0.000000 0.000000 0.000000
 CHANNELS 6 Xposition Yposition Zposition Yrotation Xrotation Zrotation
 JOINT Chest
 {
  OFFSET 0.000000 10.354800 0.006500
  CHANNELS 3 Yrotation Xrotation Zrotation
  JOINT Chest2
  {
   OFFSET 0.000000 10.435800 -0.013200
   CHANNELS 3 Yrotation Xrotation Zrotation
   JOINT Chest3
   {
    OFFSET 0.000000 10.393700 0.000000
    CHANNELS 3 Yrotation Xrotation Zrotation
    JOINT Chest4
    {
     OFFSET 0.000000 10.383100 0.000000
     CHANNELS 3 Yrotation Xrotation Zrotation
     JOINT Neck
     {
      OFFSET 0.000000 15.694000 0.000000
      CHANNELS 3 Yrotation Xrotation Zrotation
      JOINT Head
      {
       OFFSET 0.000000 9.711000 -0.028000
       CHANNELS 3 Yrotation Xrotation Zrotation
       End Site
       {
        OFFSET 0.000000 18.578700 -0.014800
       }
      }
     }
     JOINT RightCollar
     {
      OFFSET -3.157200 10.367500 0.000000
      CHANNELS 3 Yrotation Xrotation Zrotation
      JOINT RightShoulder
      {
       OFFSET -14.482500 0.000000 0.000000
       CHANNELS 3 Yrotation Xrotation Zrotation
       JOINT RightElbow
       {
        OFFSET 0.000000 -31.707800 0.000000
        CHANNELS 3 Yrotation Xrotation Zrotation
        JOINT RightWrist
        {
         OFFSET 0.000000 -25.659300 0.000000
         CHANNELS 3 Yrotation Xrotation Zrotation
         End Site
         {
          OFFSET 0.000000 -18.994300 0.000000
         }
        }
       }
      }
     }
     JOINT LeftCollar
     {
      OFFSET 3.157200 10.367500 0.000000
      CHANNELS 3 Yrotation Xrotation Zrotation
      JOINT LeftShoulder
      {
       OFFSET 14.482500 0.000000 0.000000
       CHANNELS 3 Yrotation Xrotation Zrotation
       JOINT LeftElbow
       {
        OFFSET 0.000000 -31.707800 0.000000
        CHANNELS 3 Yrotation Xrotation Zrotation
        JOINT LeftWrist
        {
         OFFSET 0.000000 -25.659300 0.000000
         CHANNELS 3 Yrotation Xrotation Zrotation
         End Site
         {
          OFFSET 0.000000 -18.994300 0.000000
         }
        }
       }
      }
     }
    }
   }
  }
 }
 JOINT RightHip
 {
  OFFSET -8.365600 -0.032100 -0.003200
  CHANNELS 3 Yrotation Xrotation Zrotation
  JOINT RightKnee
  {
   OFFSET 0.000000 -43.980000 0.003100
   CHANNELS 3 Yrotation Xrotation Zrotation
   JOINT RightAnkle
   {
    OFFSET 0.000000 -42.882800 0.005200
    CHANNELS 3 Yrotation Xrotation Zrotation
    JOINT RightToe
    {
     OFFSET 0.000000 -4.915500 10.826300
     CHANNELS 3 Yrotation Xrotation Zrotation
     End Site
     {
      OFFSET 0.000000 -1.517500 6.175900
     }
    }
   }
  }
 }
 JOINT LeftHip
 {
  OFFSET 8.365600 -0.032100 -0.003200
  CHANNELS 3 Yrotation Xrotation Zrotation
  JOINT LeftKnee
  {
   OFFSET 0.000000 -43.980000 0.003100
   CHANNELS 3 Yrotation Xrotation Zrotation
   JOINT LeftAnkle
   {
    OFFSET 0.000000 -42.882800 0.005200
    CHANNELS 3 Yrotation Xrotation Zrotation
    JOINT LeftToe
    {
     OFFSET 0.000000 -4.915500 10.826300
     CHANNELS 3 Yrotation Xrotation Zrotation
     End Site
     {
      OFFSET 0.000000 -1.517500 6.175900
     }
    }
   }
  }
 }
}
MOTION
Frames: 16
Frame Time: 0.008333
-3.606200 126.205509 36.630290 175.144409 -15.798315 -2.570438 -0.780173 12.330803 2.928357 -0.082237 0.951230 0.229567 -0.137867 1.621468 0.390494 -0.735063 11.240639 2.652908 -0.572498 18.774121 -5.282218 0.598502 -5.768089 -5.530940 3.506450 5.607408 -5.511625 6.511297 -3.920218 -8.196008 -84.840050 -71.306945 116.867582 -18.494664 -9.203947 -27.236592 -2.826582 7.616646 -1.018120 5.013291 -4.006785 0.388355 77.460014 -54.254967 -124.026000 26.669728 -0.305083 35.381155 12.700337 -65.870776 -1.481843 -116.849095 80.706226 -110.677340 2.938624 -11.594531 -14.384495 -0.005107 0.012474 -0.002319 -19.295445 -65.519902 12.270095 104.824841 82.080561 98.055317 -9.123212 -10.230416 2.301616 -0.001283 -0.000854 -0.000583
-3.604978 126.208366 36.634534 175.141746 -15.841829 -2.564760 -0.780333 12.342850 2.926962 -0.083164 0.938150 0.231125 -0.137882 1.633306 0.388428 -0.737322 11.249852 2.649503 -0.573887 18.754980 -5.279915 0.595499 -5.793487 -5.528604 3.490422 5.599072 -5.504616 6.474223 -3.914152 -8.159229 -84.739504 -71.334476 116.821183 -18.501176 -9.262127 -27.252115 -2.826304 7.629810 -1.018038 5.051407 -3.996376 0.385496 77.496850 -54.248216 -124.081321 26.688380 -0.302034 35.393584 12.730549 -65.834080 -1.473880 -116.968201 80.703262 -110.793882 2.910497 -11.643421 -14.380517 -0.000814 0.007274 -0.000370 -19.262303 -65.474427 12.231806 104.852829 82.081700 98.087469 -9.108337 -10.243385 2.289090 0.001953 -0.000133 0.000887
-3.605338 126.212282 36.635443 175.152067 -15.906528 -2.553531 -0.791482 12.397370 2.913238 -0.085965 0.900636 0.235833 -0.135715 1.670388 0.383513 -0.740161 11.237335 2.650890 -0.577123 18.717417 -5.275653 0.599531 -5.783747 -5.532268 3.465536 5.574077 -5.493444 6.479197 -3.879051 -8.152640 -84.788768 -71.317635 116.872689 -18.491184 -9.293706 -27.278027 -2.828560 7.613749 -1.006108 5.080120 -3.954790 0.370620 77.535103 -54.254972 -124.125157 26.661611 -0.329714 35.396579 12.744496 -65.769859 -1.477974 -117.130998 80.718551 -110.951186 2.880384 -11.708722 -14.383262 0.000466 0.001551 0.000212 -19.196747 -65.411237 12.147642 104.827937 82.081212 98.062019 -9.108785 -10.248232 2.287940 0.000122 -0.002318 0.000055
-3.605563 126.215194 36.640764 175.159919 -15.949825 -2.545720 -0.803762 12.391526 2.908445 -0.088264 0.899758 0.234881 -0.135824 1.668888 0.384453 -0.751914 11.232029 2.651355 -0.576116 18.696411 -5.277709 0.607858 -5.773991 -5.539172 3.442391 5.569307 -5.483100 6.489918 -3.831116 -8.149317 -84.979385 -71.272417 117.032378 -18.469554 -9.275607 -27.311380 -2.829071 7.624337 -1.000809 5.110494 -3.908473 0.356371 77.600624 -54.267391 -124.184643 26.646940 -0.337864 35.399022 12.751152 -65.726499 -1.481684 -117.273563 80.742081 -111.092860 2.857823 -11.773453 -14.385674 -0.001241 -0.001179 -0.000564 -19.155312 -65.365632 12.093772 104.801489 82.085860 98.036693 -9.122569 -10.260083 2.290474 -0.001561 -0.001936 -0.000709
-3.606016 126.218386 36.645838 175.171234 -15.998314 -2.538646 -0.828058 12.341624 2.906564 -0.085499 0.947993 0.229186 -0.143562 1.616138 0.389857 -0.776393 11.222010 2.649243 -0.560248 18.747831 -5.291030 0.613609 -5.796739 -5.543150 3.442809 5.635164 -5.480049 6.469419 -3.810295 -8.123642 -85.074753 -71.265780 117.121326 -18.455978 -9.287258 -27.349366 -2.818254 7.644600 -0.992054 5.145719 -3.819713 0.334321 77.629796 -54.276341 -124.216803 26.622578 -0.352002 35.400570 12.753183 -65.679085 -1.485911 -117.461538 80.772819 -111.276911 2.824236 -11.825868 -14.389187 -0.001039 -0.002441 -0.000472 -19.112432 -65.319043 12.032582 104.798436 82.095637 98.037623 -9.121276 -10.263254 2.288914 -0.002999 -0.002678 -0.001362
-3.605857 126.222101 36.650062 175.175853 -16.056857 -2.533587 -0.841661 12.350758 2.903460 -0.083766 0.960427 0.227708 -0.147452 1.601674 0.391021 -0.786681 11.217674 2.647861 -0.553157 18.742411 -5.294759 0.622120 -5.802470 -5.548857 3.443994 5.667777 -5.478657 6.442116 -3.815081 -8.090565 -85.149048 -71.273920 117.185271 -18.446170 -9.320748 -27.389394 -2.809875 7.652561 -0.987917 5.163381 -3.787679 0.331231 77.615669 -54.268646 -124.205274 26.589689 -0.370003 35.398296 12.761485 -65.626688 -1.486253 -117.528833 80.775931 -111.335262 2.811199 -11.838421 -14.390304 0.001923 -0.004738 0.000873 -19.061520 -65.258093 11.970811 104.792186 82.105828 98.034322 -9.108163 -10.271540 2.284781 -0.003033 -0.000537 -0.001377
-3.605987 126.224032 36.661488 175.172233 -16.079463 -2.528539 -0.851125 12.321922 2.901906 -0.084473 0.960116 0.227720 -0.142703 1.627965 0.387892 -0.796117 11.202050 2.648882 -0.547204 18.724892 -5.296058 0.632104 -5.806661 -5.556175 3.441731 5.685875 -5.476540 6.387866 -3.862540 -8.020264 -85.079913 -71.312090 117.129492 -18.435056 -9.353088 -27.429129 -2.800954 7.669644 -0.989344 5.174490 -3.790213 0.329143 77.648581 -54.287383 -124.217971 26.623723 -0.355864 35.400710 12.802112 -65.610643 -1.512152 -117.479589 80.765899 -111.288404 2.830210 -11.852097 -14.381713 -0.000433 -0.008155 -0.000197 -19.030837 -65.236570 11.943367 104.770353 82.111410 98.016167 -9.096763 -10.271071 2.281184 -0.001627 0.000601 -0.000739
-3.605408 126.226216 36.673273 175.172107 -16.106171 -2.528658 -0.865540 12.294072 2.904638 -0.087578 0.947091 0.229252 -0.143905 1.628054 0.388171 -0.787291 11.256437 2.640192 -0.545761 18.682515 -5.290770 0.640525 -5.780808 -5.564513 3.424335 5.645984 -5.466220 6.400198 -3.829972 -8.009401 -85.111231 -71.314159 117.146549 -18.419498 -9.423645 -27.479281 -2.798906 7.658475 -0.984470 5.195729 -3.847243 0.332554 77.717248 -54.306784 -124.249192 26.670265 -0.327174 35.424534 12.795505 -65.586270 -1.502201 -117.356469 80.748490 -111.173703 2.854309 -11.843595 -14.379849 -0.001531 -0.006373 -0.000695 -19.005606 -65.210335 11.920101 104.732517 82.105168 97.977133 -9.071685 -10.270923 2.281647 0.000475 0.001801 0.000216
-3.604260 126.229865 36.681266 175.161111 -16.162056 -2.526817 -0.870762 12.292133 2.908952 -0.087835 0.947497 0.229515 -0.147462 1.615177 0.390277 -0.799367 11.231882 2.647573 -0.531513 18.724289 -5.308636 0.647154 -5.755026 -5.573782 3.427300 5.695876 -5.473781 6.410112 -3.805987 -7.999242 -85.143751 -71.314600 117.160825 -18.406078 -9.491501 -27.525478 -2.777033 7.655011 -0.981886 5.199993 -3.770309 0.311927 77.772516 -54.321576 -124.295051 26.659995 -0.331478 35.438557 12.794645 -65.538140 -1.484517 -117.220995 80.727371 -111.043885 2.880857 -11.805798 -14.374043 -0.002106 -0.006271 -0.000956 -18.951462 -65.156877 11.878520 104.752970 82.092639 98.000328 -9.095024 -10.270521 2.288994 -0.001394 0.002690 -0.000633
-3.602529 126.236516 36.680402 175.135967 -16.277020 -2.519251 -0.858771 12.345354 2.911370 -0.088102 0.948129 0.229776 -0.142187 1.646759 0.386106 -0.810716 11.190549 2.657605 -0.520451 18.741920 -5.318704 0.653326 -5.752183 -5.584055 3.425074 5.711259 -5.476269 6.399838 -3.796413 -7.966297 -85.184348 -71.324044 117.174999 -18.402041 -9.526183 -27.559980 -2.766114 7.671071 -0.989579 5.207691 -3.741154 0.305499 77.776385 -54.322870 -124.295926 26.633509 -0.350331 35.442765 12.779647 -65.433136 -1.438926 -117.108367 80.710808 -110.937770 2.897050 -11.706330 -14.368737 -0.003332 0.001099 -0.001513 -18.833049 -65.047518 11.785108 104.764305 82.091049 98.010557 -9.100031 -10.265528 2.295325 -0.003103 -0.003302 -0.001409
-3.601684 126.240970 36.688588 175.130326 -16.346465 -2.515052 -0.858388 12.383211 2.910093 -0.093112 0.915604 0.233697 -0.146307 1.633761 0.388910 -0.810306 11.224450 2.653112 -0.510818 18.732908 -5.318960 0.675985 -5.794934 -5.589327 3.412565 5.649782 -5.460089 6.398122 -3.744503 -7.938236 -85.408403 -71.312127 117.322339 -18.411894 -9.481957 -27.576810 -2.761358 7.656855 -0.988743 5.220184 -3.738132 0.307853 77.812039 -54.318744 -124.327082 26.640701 -0.344709 35.472421 12.765083 -65.370703 -1.418174 -117.031477 80.703049 -110.866914 2.904154 -11.647842 -14.361346 -0.003860 0.005576 -0.001753 -18.758993 -64.981791 11.720713 104.747456 82.095165 97.994156 -9.110352 -10.262176 2.301295 -0.005397 -0.003661 -0.002450
-3.600537 126.244321 36.702312 175.129919 -16.392003 -2.514691 -0.871444 12.343516 2.915221 -0.091753 0.933283 0.231799 -0.150134 1.619776 0.391049 -0.804851 11.291857 2.643836 -0.505394 18.694554 -5.311900 0.687637 -5.774610 -5.594924 3.400131 5.589195 -5.448541 6.384914 -3.725937 -7.902892 -85.528239 -71.313573 117.392901 -18.418009 -9.469364 -27.597815 -2.762961 7.612636 -0.981886 5.227750 -3.801204 0.327566 77.772051 -54.283736 -124.260849 26.627104 -0.374000 35.475644 12.748020 -65.333979 -1.396966 -117.004638 80.697463 -110.844029 2.897799 -11.606044 -14.354738 -0.000889 0.010557 -0.000404 -18.711055 -64.937312 11.681032 104.720707 82.101529 97.969177 -9.126871 -10.261860 2.305682 -0.007798 -0.000465 -0.003541
-3.599210 126.247822 36.717141 175.128814 -16.439132 -2.513364 -0.882660 12.300430 2.919958 -0.090281 0.951587 0.229735 -0.147943 1.657942 0.387014 -0.816304 11.268399 2.647185 -0.495322 18.697907 -5.314593 0.694291 -5.730473 -5.601556 3.404407 5.616648 -5.449657 6.358993 -3.751793 -7.863992 -85.590794 -71.321053 117.420187 -18.416966 -9.479123 -27.622563 -2.760409 7.610674 -0.985437 5.236385 -3.772466 0.328541 77.829184 -54.286395 -124.323284 26.631274 -0.389539 35.490912 12.715584 -65.297810 -1.363980 -117.034146 80.695735 -110.882084 2.892252 -11.587537 -14.348175 0.001164 0.013289 0.000528 -18.654366 -64.893490 11.632150 104.697675 82.107772 97.952527 -9.132122 -10.262973 2.304649 -0.008547 0.002390 -0.003881
-3.597802 126.253372 36.726474 175.133062 -16.525011 -2.508989 -0.892072 12.310086 2.919155 -0.091215 0.953377 0.229479 -0.151626 1.642780 0.388417 -0.839116 11.247192 2.639530 -0.474996 18.755343 -5.316406 0.707184 -5.723295 -5.601084 3.419500 5.695403 -5.443995 6.320010 -3.828372 -7.793427 -85.480491 -71.356050 117.285314 -18.413357 -9.494800 -27.649966 -2.746333 7.677367 -0.992235 5.244638 -3.760352 0.330926 77.889057 -54.292922 -124.393567 26.630172 -0.409188 35.503108 12.682891 -65.214908 -1.331256 -117.063661 80.695619 -110.913313 2.892131 -11.601944 -14.342447 0.004056 0.015694 0.001842 -18.556010 -64.811189 11.544444 104.683308 82.119529 97.939388 -9.135529 -10.265087 2.311224 -0.006434 0.003739 -0.002922
-3.597758 126.259136 36.736162 175.133966 -16.614779 -2.493970 -0.896142 12.322618 2.910075 -0.092271 0.955502 0.229231 -0.155010 1.628429 0.389754 -0.851103 11.275978 2.630306 -0.465246 18.763283 -5.313232 0.716805 -5.715263 -5.601387 3.416873 5.694442 -5.428383 6.308666 -3.850634 -7.754134 -85.466306 -71.371848 117.228988 -18.410444 -9.515626 -27.679566 -2.739601 7.722987 -0.997864 5.227701 -3.890067 0.366984 77.836427 -54.253173 -124.297726 26.644883 -0.419050 35.522503 12.656815 -65.127908 -1.310040 -117.133741 80.700097 -110.991461 2.895379 -11.645969 -14.338757 0.004193 0.016233 0.001904 -18.454973 -64.728570 11.446331 104.647860 82.108151 97.889290 -9.151139 -10.260704 2.328726 -0.011866 0.002395 -0.005388
-3.596983 126.265298 36.745844 175.153660 -16.709721 -2.486307 -0.915630 12.341187 2.904522 -0.094101 0.994996 0.223791 -0.155791 1.594865 0.394507 -0.857102 11.331708 2.620448 -0.462017 18.727466 -5.305235 0.726428 -5.711386 -5.600981 3.405926 5.645651 -5.415239 6.305487 -3.856240 -7.726259 -85.505009 -71.377686 117.223396 -18.405587 -9.541770 -27.714628 -2.741435 7.676129 -0.989253 5.215268 -3.907235 0.381623 77.882447 -54.251942 -124.315616 26.700605 -0.406417 35.563847 12.602947 -65.039296 -1.280599 -117.285646 80.707548 -111.145451 2.890186 -11.686416 -14.345701 0.005482 0.017248 0.002490 -18.362934 -64.640885 11.338445 104.584295 82.104006 97.821087 -9.132806 -10.253794 2.330349 -0.011324 0.002125 -0.005142
